<?xml version="1.0" standalone="no"?>
<!DOCTYPE svg PUBLIC "-//W3C//DTD SVG 20010904//EN"
 "http://www.w3.org/TR/2001/REC-SVG-20010904/DTD/svg10.dtd">
<svg version="1.0" xmlns="http://www.w3.org/2000/svg"
 width="830.000000pt" height="902.000000pt" viewBox="0 0 830.000000 902.000000"
 preserveAspectRatio="xMidYMid meet">

<g transform="translate(0.000000,902.000000) scale(0.100000,-0.100000)"
fill="#000000" stroke="none">
<path d="M4124 8835 c-16 -25 -41 -65 -55 -88 -14 -23 -51 -81 -83 -129 -31
-48 -56 -89 -56 -92 0 -3 -17 -31 -39 -63 -44 -67 -99 -154 -156 -248 -22 -36
-52 -82 -67 -102 -16 -20 -28 -39 -28 -44 0 -5 -17 -34 -38 -66 -38 -57 -89
-138 -188 -296 -27 -43 -57 -91 -66 -105 -10 -15 -25 -40 -34 -57 -9 -16 -20
-32 -24 -35 -4 -3 -15 -20 -25 -39 -9 -19 -21 -39 -26 -45 -6 -6 -16 -19 -23
-30 -12 -18 -14 -18 -49 -1 -20 9 -37 21 -37 26 0 5 -4 9 -9 9 -12 0 -375 241
-379 252 -2 4 -9 8 -16 8 -7 0 -21 8 -32 18 -20 18 -91 62 -101 62 -7 0 1 -79
37 -345 12 -85 26 -197 40 -310 16 -128 20 -160 30 -225 5 -36 14 -105 20
-155 6 -49 15 -121 20 -160 5 -38 14 -108 20 -155 6 -47 15 -114 20 -150 5
-36 13 -101 19 -145 6 -44 19 -147 30 -230 11 -82 27 -204 36 -270 9 -66 18
-137 21 -157 3 -21 2 -38 -3 -38 -5 0 -57 46 -114 103 -125 121 -384 372 -651
627 -106 102 -232 224 -281 273 -49 48 -93 87 -98 87 -5 0 -12 -8 -15 -17 -3
-10 -12 -34 -19 -53 -8 -19 -37 -96 -65 -170 -29 -74 -58 -148 -65 -165 -14
-30 -34 -84 -62 -163 -9 -24 -22 -46 -30 -49 -17 -7 -129 11 -433 67 -54 10
-318 54 -540 91 -158 26 -218 37 -240 44 -17 5 -20 2 -20 -22 0 -15 7 -50 16
-78 8 -27 31 -108 50 -180 40 -147 47 -172 105 -380 23 -82 56 -206 75 -275
41 -158 79 -295 106 -385 31 -107 34 -144 12 -151 -11 -3 -27 -10 -36 -15 -10
-5 -22 -9 -28 -9 -5 0 -34 -11 -64 -25 -30 -14 -58 -25 -61 -25 -6 0 -112 -44
-180 -75 -67 -30 -104 -45 -112 -45 -5 0 -18 -6 -28 -14 -19 -14 -19 -15 -1
-35 11 -12 25 -21 33 -21 7 0 13 -4 13 -8 0 -4 13 -16 30 -25 16 -10 35 -23
42 -30 7 -7 29 -24 48 -37 19 -13 37 -27 40 -30 3 -3 21 -17 40 -30 35 -25 62
-46 84 -65 6 -6 52 -40 101 -75 50 -36 91 -68 93 -72 2 -5 8 -8 13 -8 5 0 17
-8 27 -17 11 -10 32 -27 47 -38 16 -11 34 -26 41 -32 7 -7 15 -13 18 -13 3 0
14 -7 23 -15 10 -8 50 -37 88 -65 39 -28 88 -65 109 -83 38 -31 57 -45 182
-134 33 -22 68 -49 80 -60 11 -10 27 -22 36 -28 15 -9 282 -209 318 -238 14
-11 111 -84 170 -127 169 -124 416 -312 418 -319 2 -5 -18 -87 -43 -183 -26
-95 -64 -240 -85 -323 -21 -82 -49 -187 -61 -233 -24 -91 -19 -110 22 -94 13
6 60 15 104 21 44 7 114 18 155 26 41 7 111 19 155 25 44 7 118 19 165 27 47
8 141 23 210 33 128 20 457 73 565 91 114 19 180 29 255 40 41 6 122 19 179
30 160 29 147 36 155 -78 6 -99 16 -226 36 -453 6 -69 15 -181 20 -250 10
-130 22 -269 40 -480 14 -160 29 -344 40 -490 5 -63 14 -177 20 -253 6 -77 14
-155 19 -175 8 -35 8 -34 14 28 7 70 32 388 47 585 15 191 20 258 25 295 3 19
10 96 15 170 6 74 15 187 20 250 6 63 15 174 21 245 6 72 14 177 20 235 5 58
11 137 14 175 15 199 17 215 28 215 7 0 66 -9 132 -21 66 -11 152 -24 190 -30
120 -17 184 -27 400 -63 116 -19 273 -44 350 -56 77 -12 163 -25 190 -30 198
-35 536 -91 605 -100 30 -4 62 -10 71 -14 30 -13 29 9 -2 125 -17 63 -34 130
-39 149 -4 19 -38 153 -76 298 l-67 263 26 25 c14 13 30 24 34 24 5 0 23 14
41 30 18 17 36 30 38 30 3 0 11 6 18 13 7 6 25 21 41 32 15 11 36 28 47 38 10
9 23 17 28 17 6 0 10 5 10 10 0 6 4 10 9 10 9 0 168 115 181 130 3 3 21 17 40
30 38 27 65 48 85 67 8 7 16 13 19 13 9 0 301 222 304 231 2 5 10 9 17 9 7 0
15 4 17 8 2 5 25 23 53 42 50 34 76 55 100 78 8 6 16 12 19 12 6 0 36 24 61
48 8 6 17 12 22 12 5 0 15 9 23 20 8 11 18 20 23 20 5 0 52 33 104 73 52 39
113 84 134 99 22 14 48 36 58 47 10 12 23 21 28 21 5 0 18 8 29 18 10 9 49 39
86 65 36 26 72 53 80 60 7 7 29 24 48 37 19 13 40 29 46 35 7 5 64 48 127 94
63 47 113 89 111 95 -3 6 -30 22 -62 35 -31 13 -70 29 -87 36 -16 7 -59 25
-95 40 -36 15 -78 33 -95 41 -28 12 -62 25 -162 61 -24 9 -43 21 -43 28 0 6 9
38 19 71 25 77 116 409 141 514 4 19 22 85 40 145 17 61 45 160 61 220 17 61
37 134 45 163 7 28 21 77 29 107 8 30 22 79 31 108 19 66 23 123 8 120 -24 -4
-133 -23 -224 -38 -52 -8 -117 -20 -145 -25 -27 -6 -122 -22 -210 -36 -88 -14
-191 -31 -230 -39 -151 -30 -369 -65 -401 -65 -18 0 -26 12 -50 78 -15 42 -31
81 -36 87 -4 5 -8 15 -8 23 0 8 -6 28 -14 45 -8 18 -25 61 -39 97 -71 185
-110 281 -119 286 -5 4 -48 -31 -95 -77 -150 -147 -255 -249 -462 -449 -112
-107 -284 -275 -384 -372 -162 -158 -208 -196 -207 -170 0 4 5 41 11 82 16
121 50 379 60 458 5 39 14 107 19 150 6 42 15 111 20 152 19 157 47 372 61
470 6 41 14 107 19 145 4 39 22 176 39 305 18 129 36 269 41 310 5 41 14 107
19 145 13 87 13 105 2 105 -12 0 -165 -101 -169 -112 -2 -4 -8 -8 -13 -8 -12
0 -193 -121 -197 -132 -2 -4 -10 -8 -18 -8 -8 0 -14 -4 -14 -10 0 -5 -7 -10
-15 -10 -8 0 -15 -4 -15 -10 0 -5 -5 -10 -11 -10 -10 0 -99 -57 -109 -70 -3
-4 -14 -10 -26 -14 -22 -7 -28 1 -97 112 -13 20 -40 63 -60 94 -21 31 -37 61
-37 66 0 6 -4 12 -8 14 -5 2 -27 32 -48 68 -65 107 -218 348 -231 365 -4 6
-17 27 -28 48 -11 20 -22 37 -26 37 -3 0 -11 12 -18 28 -7 15 -23 43 -35 62
-13 19 -39 61 -59 93 -21 31 -53 83 -74 115 -60 94 -78 123 -127 202 -89 142
-114 182 -119 186 -3 3 -18 -16 -33 -41z m-681 -3495 c-3 -12 -14 -20 -27 -20
-26 0 -40 -9 -54 -36 -14 -27 -6 -56 64 -231 31 -76 60 -149 64 -163 5 -14 50
-126 100 -250 137 -336 365 -903 511 -1270 157 -393 160 -400 169 -400 5 0 40
82 80 183 40 100 83 207 96 237 12 30 50 125 84 210 33 85 69 175 80 200 11
25 47 115 80 200 33 85 69 175 80 200 11 25 40 99 66 165 76 199 315 798 329
825 38 75 24 118 -41 129 -26 4 -40 12 -42 24 -3 16 13 17 223 17 206 0 226
-1 223 -17 -2 -11 -21 -20 -61 -28 -39 -8 -67 -21 -87 -40 -40 -38 -100 -141
-140 -240 -48 -117 -110 -274 -127 -319 -8 -22 -23 -59 -34 -82 -10 -24 -19
-46 -19 -49 0 -3 -10 -27 -21 -53 -19 -41 -501 -1241 -766 -1904 -52 -130
-100 -239 -108 -241 -7 -3 -20 0 -28 6 -8 7 -52 104 -97 217 -89 223 -240 595
-440 1090 -70 173 -220 547 -334 830 -215 532 -275 665 -328 720 -36 38 -101
69 -145 70 -26 0 -33 4 -33 20 0 20 7 20 344 20 339 0 344 0 339 -20z"/>
</g>
</svg>
